<svg width="300" height="267" viewBox="0 0 300 267" fill="none" xmlns="http://www.w3.org/2000/svg">
<g clip-path="url(#clip0_1_4)">
<rect width="300" height="267" fill="white"/>
<rect width="300" height="267" fill="#9CA3AF"/>
<path d="M49.818 123.31C48.1647 123.31 46.625 123.052 45.199 122.535C43.773 121.998 42.5227 121.233 41.448 120.241C40.394 119.249 39.5673 118.071 38.968 116.707C38.3687 115.322 38.069 113.803 38.069 112.15C38.069 110.579 38.379 109.122 38.999 107.779C39.6397 106.436 40.4973 105.268 41.572 104.276C42.6673 103.263 43.928 102.488 45.354 101.951C46.78 101.393 48.299 101.114 49.911 101.114C51.1923 101.114 52.422 101.29 53.6 101.641C54.778 101.992 55.8423 102.447 56.793 103.005C57.7643 103.542 58.5497 104.131 59.149 104.772L57.072 107.438C56.3693 106.818 55.6357 106.291 54.871 105.857C54.127 105.402 53.321 105.051 52.453 104.803C51.6057 104.555 50.6963 104.431 49.725 104.431C48.6503 104.431 47.617 104.617 46.625 104.989C45.6537 105.34 44.7753 105.857 43.99 106.539C43.2253 107.221 42.6157 108.037 42.161 108.988C41.7063 109.939 41.479 110.993 41.479 112.15C41.479 113.411 41.7063 114.527 42.161 115.498C42.6363 116.469 43.277 117.296 44.083 117.978C44.889 118.639 45.8087 119.146 46.842 119.497C47.896 119.848 49.012 120.024 50.19 120.024C51.2233 120.024 52.1637 119.89 53.011 119.621C53.879 119.332 54.6643 118.98 55.367 118.567C56.0697 118.133 56.7 117.678 57.258 117.203L58.901 119.962C58.3637 120.479 57.6197 120.995 56.669 121.512C55.739 122.029 54.685 122.463 53.507 122.814C52.329 123.145 51.0993 123.31 49.818 123.31ZM77.3172 123.31C75.5398 123.31 73.9072 123.031 72.4192 122.473C70.9518 121.894 69.6602 121.099 68.5442 120.086C67.4488 119.073 66.6015 117.895 66.0022 116.552C65.4028 115.188 65.1032 113.721 65.1032 112.15C65.1032 110.579 65.4028 109.122 66.0022 107.779C66.6015 106.415 67.4488 105.227 68.5442 104.214C69.6602 103.201 70.9518 102.416 72.4192 101.858C73.9072 101.279 75.5398 100.99 77.3172 100.99C79.0945 100.99 80.7168 101.269 82.1842 101.827C83.6722 102.385 84.9638 103.181 86.0592 104.214C87.1752 105.227 88.0328 106.415 88.6322 107.779C89.2522 109.122 89.5622 110.579 89.5622 112.15C89.5622 113.721 89.2522 115.188 88.6322 116.552C88.0328 117.895 87.1752 119.084 86.0592 120.117C84.9638 121.13 83.6722 121.915 82.1842 122.473C80.7168 123.031 79.0945 123.31 77.3172 123.31ZM77.3172 120.055C78.6192 120.055 79.7972 119.859 80.8512 119.466C81.9258 119.053 82.8558 118.495 83.6412 117.792C84.4472 117.069 85.0672 116.232 85.5012 115.281C85.9352 114.31 86.1522 113.266 86.1522 112.15C86.1522 111.034 85.9352 110.001 85.5012 109.05C85.0672 108.079 84.4472 107.242 83.6412 106.539C82.8558 105.816 81.9258 105.258 80.8512 104.865C79.7972 104.452 78.6192 104.245 77.3172 104.245C76.0358 104.245 74.8578 104.452 73.7832 104.865C72.7085 105.258 71.7682 105.805 70.9622 106.508C70.1768 107.211 69.5672 108.048 69.1332 109.019C68.7198 109.97 68.5132 111.013 68.5132 112.15C68.5132 113.266 68.7198 114.31 69.1332 115.281C69.5672 116.252 70.1768 117.089 70.9622 117.792C71.7682 118.495 72.7085 119.053 73.7832 119.466C74.8578 119.859 76.0358 120.055 77.3172 120.055ZM97.3526 123V101.3H100.639L109.815 113.762H108.482L117.689 101.3H120.913V123H117.565V113.917C117.565 112.14 117.606 110.507 117.689 109.019C117.771 107.51 117.937 105.991 118.185 104.462L118.557 105.671L110.125 116.769H108.079L99.7396 105.733L100.081 104.462C100.308 105.95 100.463 107.448 100.546 108.957C100.649 110.445 100.701 112.098 100.701 113.917V123H97.3526ZM130.227 123V119.776H135.094V104.524H130.227V101.3H143.34V104.524H138.442V119.776H143.34V123H130.227ZM152.632 123V101.3H155.825L171.883 119.063L171.573 119.342C171.49 118.763 171.408 118.133 171.325 117.451C171.263 116.769 171.211 116.066 171.17 115.343C171.129 114.62 171.087 113.876 171.046 113.111C171.025 112.326 171.005 111.54 170.984 110.755C170.963 109.97 170.953 109.195 170.953 108.43V101.3H174.301V123H171.046L155.205 105.888L155.36 105.454C155.422 106.136 155.474 106.808 155.515 107.469C155.577 108.11 155.639 108.73 155.701 109.329C155.763 109.928 155.804 110.507 155.825 111.065C155.866 111.602 155.897 112.119 155.918 112.615C155.959 113.09 155.98 113.545 155.98 113.979V123H152.632ZM194.387 123.31C192.733 123.31 191.163 123.062 189.675 122.566C188.187 122.049 186.874 121.316 185.738 120.365C184.601 119.394 183.702 118.216 183.041 116.831C182.4 115.446 182.08 113.886 182.08 112.15C182.08 110.6 182.4 109.153 183.041 107.81C183.681 106.467 184.58 105.299 185.738 104.307C186.895 103.294 188.238 102.509 189.768 101.951C191.297 101.393 192.94 101.114 194.697 101.114C196.102 101.114 197.414 101.29 198.634 101.641C199.874 101.972 200.969 102.416 201.92 102.974C202.891 103.532 203.656 104.142 204.214 104.803L202.044 107.19C201.341 106.591 200.597 106.095 199.812 105.702C199.026 105.289 198.2 104.968 197.332 104.741C196.484 104.493 195.606 104.369 194.697 104.369C193.415 104.369 192.217 104.565 191.101 104.958C190.005 105.351 189.044 105.898 188.218 106.601C187.391 107.304 186.74 108.13 186.265 109.081C185.81 110.011 185.583 111.034 185.583 112.15C185.583 113.411 185.82 114.537 186.296 115.529C186.792 116.521 187.463 117.348 188.311 118.009C189.158 118.67 190.119 119.177 191.194 119.528C192.289 119.879 193.426 120.055 194.604 120.055C195.699 120.055 196.732 119.941 197.704 119.714C198.675 119.466 199.522 119.125 200.246 118.691C200.969 118.236 201.527 117.72 201.92 117.141C202.333 116.542 202.519 115.911 202.478 115.25V114.754L202.943 115.343H194.635V112.057H206.043C206.084 112.346 206.115 112.594 206.136 112.801C206.156 112.987 206.167 113.152 206.167 113.297C206.167 113.421 206.167 113.535 206.167 113.638C206.167 115.209 205.877 116.593 205.299 117.792C204.72 118.991 203.904 120.003 202.85 120.83C201.796 121.636 200.545 122.256 199.099 122.69C197.673 123.103 196.102 123.31 194.387 123.31ZM111.715 162.31C110.289 162.31 108.976 162.155 107.778 161.845C106.579 161.535 105.484 161.07 104.492 160.45C103.52 159.83 102.632 159.045 101.826 158.094L103.996 155.366C105.215 156.771 106.434 157.784 107.654 158.404C108.894 159.003 110.299 159.303 111.87 159.303C112.841 159.303 113.75 159.179 114.598 158.931C115.466 158.662 116.168 158.29 116.706 157.815C117.264 157.319 117.543 156.709 117.543 155.986C117.543 155.511 117.408 155.108 117.14 154.777C116.871 154.446 116.509 154.167 116.055 153.94C115.6 153.713 115.083 153.527 114.505 153.382C113.947 153.217 113.368 153.082 112.769 152.979C112.19 152.876 111.642 152.783 111.126 152.7C109.844 152.514 108.687 152.256 107.654 151.925C106.641 151.574 105.783 151.14 105.081 150.623C104.378 150.106 103.841 149.486 103.469 148.763C103.097 148.04 102.911 147.213 102.911 146.283C102.911 145.332 103.128 144.464 103.562 143.679C104.016 142.894 104.647 142.232 105.453 141.695C106.259 141.137 107.199 140.713 108.274 140.424C109.348 140.135 110.516 139.99 111.777 139.99C113.099 139.99 114.308 140.135 115.404 140.424C116.52 140.713 117.501 141.147 118.349 141.726C119.217 142.284 119.94 142.976 120.519 143.803L118.225 146.221C117.708 145.518 117.109 144.929 116.427 144.454C115.765 143.979 115.032 143.617 114.226 143.369C113.42 143.121 112.572 142.997 111.684 142.997C110.671 142.997 109.772 143.121 108.987 143.369C108.201 143.617 107.581 143.968 107.127 144.423C106.672 144.857 106.445 145.384 106.445 146.004C106.445 146.521 106.579 146.975 106.848 147.368C107.116 147.74 107.499 148.06 107.995 148.329C108.491 148.598 109.1 148.825 109.824 149.011C110.547 149.197 111.374 149.352 112.304 149.476C113.502 149.662 114.629 149.9 115.683 150.189C116.757 150.458 117.698 150.819 118.504 151.274C119.31 151.708 119.94 152.266 120.395 152.948C120.849 153.609 121.077 154.426 121.077 155.397C121.077 156.802 120.694 158.022 119.93 159.055C119.165 160.088 118.08 160.894 116.675 161.473C115.269 162.031 113.616 162.31 111.715 162.31ZM139.529 162.31C137.752 162.31 136.119 162.031 134.631 161.473C133.164 160.894 131.872 160.099 130.756 159.086C129.661 158.073 128.813 156.895 128.214 155.552C127.615 154.188 127.315 152.721 127.315 151.15C127.315 149.579 127.615 148.122 128.214 146.779C128.813 145.415 129.661 144.227 130.756 143.214C131.872 142.201 133.164 141.416 134.631 140.858C136.119 140.279 137.752 139.99 139.529 139.99C141.306 139.99 142.929 140.269 144.396 140.827C145.884 141.385 147.176 142.181 148.271 143.214C149.387 144.227 150.245 145.415 150.844 146.779C151.464 148.122 151.774 149.579 151.774 151.15C151.774 152.721 151.464 154.188 150.844 155.552C150.245 156.895 149.387 158.084 148.271 159.117C147.176 160.13 145.884 160.915 144.396 161.473C142.929 162.031 141.306 162.31 139.529 162.31ZM139.529 159.055C140.831 159.055 142.009 158.859 143.063 158.466C144.138 158.053 145.068 157.495 145.853 156.792C146.659 156.069 147.279 155.232 147.713 154.281C148.147 153.31 148.364 152.266 148.364 151.15C148.364 150.034 148.147 149.001 147.713 148.05C147.279 147.079 146.659 146.242 145.853 145.539C145.068 144.816 144.138 144.258 143.063 143.865C142.009 143.452 140.831 143.245 139.529 143.245C138.248 143.245 137.07 143.452 135.995 143.865C134.92 144.258 133.98 144.805 133.174 145.508C132.389 146.211 131.779 147.048 131.345 148.019C130.932 148.97 130.725 150.013 130.725 151.15C130.725 152.266 130.932 153.31 131.345 154.281C131.779 155.252 132.389 156.089 133.174 156.792C133.98 157.495 134.92 158.053 135.995 158.466C137.07 158.859 138.248 159.055 139.529 159.055ZM170.136 162.31C168.358 162.31 166.726 162.031 165.238 161.473C163.77 160.894 162.479 160.099 161.363 159.086C160.267 158.073 159.42 156.895 158.821 155.552C158.221 154.188 157.922 152.721 157.922 151.15C157.922 149.579 158.221 148.122 158.821 146.779C159.42 145.415 160.267 144.227 161.363 143.214C162.479 142.201 163.77 141.416 165.238 140.858C166.726 140.279 168.358 139.99 170.136 139.99C171.913 139.99 173.535 140.269 175.003 140.827C176.491 141.385 177.782 142.181 178.878 143.214C179.994 144.227 180.851 145.415 181.451 146.779C182.071 148.122 182.381 149.579 182.381 151.15C182.381 152.721 182.071 154.188 181.451 155.552C180.851 156.895 179.994 158.084 178.878 159.117C177.782 160.13 176.491 160.915 175.003 161.473C173.535 162.031 171.913 162.31 170.136 162.31ZM170.136 159.055C171.438 159.055 172.616 158.859 173.67 158.466C174.744 158.053 175.674 157.495 176.46 156.792C177.266 156.069 177.886 155.232 178.32 154.281C178.754 153.31 178.971 152.266 178.971 151.15C178.971 150.034 178.754 149.001 178.32 148.05C177.886 147.079 177.266 146.242 176.46 145.539C175.674 144.816 174.744 144.258 173.67 143.865C172.616 143.452 171.438 143.245 170.136 143.245C168.854 143.245 167.676 143.452 166.602 143.865C165.527 144.258 164.587 144.805 163.781 145.508C162.995 146.211 162.386 147.048 161.952 148.019C161.538 148.97 161.332 150.013 161.332 151.15C161.332 152.266 161.538 153.31 161.952 154.281C162.386 155.252 162.995 156.089 163.781 156.792C164.587 157.495 165.527 158.053 166.602 158.466C167.676 158.859 168.854 159.055 170.136 159.055ZM190.171 162V140.3H193.364L209.422 158.063L209.112 158.342C209.029 157.763 208.947 157.133 208.864 156.451C208.802 155.769 208.75 155.066 208.709 154.343C208.668 153.62 208.626 152.876 208.585 152.111C208.564 151.326 208.544 150.54 208.523 149.755C208.502 148.97 208.492 148.195 208.492 147.43V140.3H211.84V162H208.585L192.744 144.888L192.899 144.454C192.961 145.136 193.013 145.808 193.054 146.469C193.116 147.11 193.178 147.73 193.24 148.329C193.302 148.928 193.343 149.507 193.364 150.065C193.405 150.602 193.436 151.119 193.457 151.615C193.498 152.09 193.519 152.545 193.519 152.979V162H190.171ZM223.246 162.341C222.316 162.341 221.613 162.134 221.138 161.721C220.662 161.308 220.425 160.739 220.425 160.016C220.425 159.396 220.662 158.859 221.138 158.404C221.613 157.929 222.316 157.691 223.246 157.691C224.196 157.691 224.909 157.898 225.385 158.311C225.86 158.724 226.098 159.293 226.098 160.016C226.098 160.636 225.85 161.184 225.354 161.659C224.878 162.114 224.176 162.341 223.246 162.341ZM236.657 162.341C235.727 162.341 235.024 162.134 234.549 161.721C234.074 161.308 233.836 160.739 233.836 160.016C233.836 159.396 234.074 158.859 234.549 158.404C235.024 157.929 235.727 157.691 236.657 157.691C237.608 157.691 238.321 157.898 238.796 158.311C239.271 158.724 239.509 159.293 239.509 160.016C239.509 160.636 239.261 161.184 238.765 161.659C238.29 162.114 237.587 162.341 236.657 162.341ZM250.068 162.341C249.138 162.341 248.435 162.134 247.96 161.721C247.485 161.308 247.247 160.739 247.247 160.016C247.247 159.396 247.485 158.859 247.96 158.404C248.435 157.929 249.138 157.691 250.068 157.691C251.019 157.691 251.732 157.898 252.207 158.311C252.682 158.724 252.92 159.293 252.92 160.016C252.92 160.636 252.672 161.184 252.176 161.659C251.701 162.114 250.998 162.341 250.068 162.341Z" fill="#09090A"/>
</g>
<defs>
<clipPath id="clip0_1_4">
<rect width="300" height="267" fill="white"/>
</clipPath>
</defs>
</svg>
